# xmcd
#
# Track frame offsets: 
#        150
#        21510
#        39590
#        58072
#        73710
#        87917
#        104365
#        123012
#        137892
#        160662
#        179055
#        200210
#        219525
#        240532
#        257187
#        277345
#        309390
#
# Disc length: 4772 seconds
#
# Revision: 0
# Processed by: cddbd v1.5.2PL0 Copyright (c) Steve Scherf et al.
# Submitted via: ExactAudioCopy v1.0b3
#
DISCID=0912a211
DTITLE=优客李林 - 优客年代-优盘
DYEAR=2002
DGENRE=Pop
TTITLE0=认错
TTITLE1=只给你（just for you）
TTITLE2=你的愁我的梦
TTITLE3=黄丝带
TTITLE4=相亲记
TTITLE5=多帮别人想
TTITLE6=少年游
TTITLE7=耐心让你更顺心
TTITLE8=不知所措
TTITLE9=钟声轻轻响
TTITLE10=多情种
TTITLE11=输了你 赢了世界又如何
TTITLE12=散了吧
TTITLE13=现在我这么想
TTITLE14=蒙娜丽莎的眼泪
TTITLE15=单身情歌
TTITLE16=data
EXTD=
EXTT0=
EXTT1=
EXTT2=
EXTT3=
EXTT4=
EXTT5=
EXTT6=
EXTT7=
EXTT8=
EXTT9=
EXTT10=
EXTT11=
EXTT12=
EXTT13=
EXTT14=
EXTT15=
EXTT16=
PLAYORDER=
